<svg width="471" height="235" viewBox="0 0 471 235" fill="none" xmlns="http://www.w3.org/2000/svg">
<path fill-rule="evenodd" clip-rule="evenodd" d="M237.758 17.0363C232.074 22.324 227.913 28.3415 226.837 32.8324C224.874 41.0166 227.035 49.0217 232.774 54.8392C239.826 61.9855 246.423 64.4365 263.22 66.1511C276.005 67.456 277.74 67.9089 281.747 70.9844C286.302 74.48 288.348 79.8282 288.296 88.1041C288.252 95.1796 286.788 103.04 284.064 110.83C281.882 117.07 276.848 126.024 276.524 124.24C276.403 123.573 276.62 118.647 277.007 113.293C278.038 99.0154 277.996 98.2334 276.128 97.0755C274.695 96.1861 273.836 96.4614 266.951 100.018C258.246 104.516 253.128 105.585 250.36 103.484C248.029 101.714 248.321 100.296 251.145 99.6861C260.485 97.6679 270.865 91.8967 274.764 86.5552C277.233 83.17 279.78 76.6415 279.525 74.3479L279.32 72.511L275.778 75.1097C270.901 78.6881 265.19 80.5907 256.409 81.5629L248.954 82.3881L247.814 86.1791C246.014 92.1682 241.331 100.285 235.703 107.175L230.515 113.524L233.022 113.151C234.4 112.946 238.425 112.577 241.967 112.331L248.408 111.884L242.385 116.222C232.322 123.472 226.833 130.752 226.833 136.85C226.833 140.372 230.383 144.7 236.493 148.627C245.222 154.237 248.086 157.726 248.086 162.753C248.086 166.42 246.244 170.059 241.34 176.082C236.423 182.119 236.461 182.129 243.578 176.621C249.452 172.075 255.176 165.596 257.021 161.407C258.626 157.762 258.83 151.953 257.485 148.221C256.987 146.842 255.106 143.206 253.303 140.142C249.236 133.227 248.086 130.095 248.086 125.935C248.086 121.973 250.643 117.132 255.072 112.71C257.7 110.087 262.526 107.45 263.114 108.316C263.228 108.484 262.793 117.016 262.147 127.275C261.502 137.535 261.044 146.362 261.131 146.892C261.339 148.167 271.589 142.387 278.953 136.842C296.71 123.473 303.481 111.673 303.463 94.1238C303.454 84.3153 301.652 77.8562 296.654 69.713C292.499 62.9435 285.306 57.0096 277.825 54.1781L274.399 52.8813L277.913 49.0418C282.011 44.5659 283.45 41.6157 283.9 36.7682C284.567 29.5853 280.696 25.4727 275.716 28.0736C273.328 29.3219 267.406 35.8221 267.406 37.1957C267.406 37.5464 268.268 38.5715 269.321 39.4743C271.686 41.4993 272.532 44.9106 271.636 48.8016L270.966 51.7092L265.161 51.1906C256.533 50.4206 253.401 49.5835 248.297 46.6833C239.542 41.709 235.445 33.8053 237.125 25.125C237.837 21.4414 238.746 19.4455 241.83 14.7979C242.85 13.2594 243.57 12 243.429 12C243.288 12 240.736 14.266 237.758 17.0363ZM405.418 15.6082C391.94 28.6243 387.818 39.7414 392.674 49.9775C394.78 54.4169 401.466 62.2519 411.338 71.8477C424.744 84.8772 429.208 94.7103 427.646 107.77C426.805 114.8 424.304 124.507 421.682 130.907L419.504 136.229L419.448 124.939L419.392 113.649L416.548 112.82C414.985 112.363 412.791 111.099 411.673 110.009L409.64 108.028L405.607 109.947C400.31 112.467 397.545 112.982 395.614 111.808C392.813 110.106 393.503 109.348 398.723 108.397C405.142 107.226 410.591 105.075 413.382 102.608C416.319 100.014 418.813 94.0589 419.238 88.6294L419.584 84.2109L416.049 86.9297C411.421 90.4895 407.345 92.2257 401.037 93.3232C398.204 93.8157 395.306 94.3409 394.597 94.4894C393.699 94.6782 392.851 96.1331 391.795 99.3026C389.997 104.699 387.203 109.662 382.381 116.026L378.842 120.695L384.788 119.722C393.792 118.247 393.599 118.067 389.109 123.731C381.99 132.709 379.356 138.143 379.356 143.851C379.356 148.035 380.371 149.816 386.954 157.178C391.96 162.775 392.343 163.418 392.343 166.213C392.343 169.312 390.72 172.836 387.287 177.19C385.773 179.11 386.015 179.016 389.445 176.344C400.775 167.522 405.522 159.287 403.608 151.778C403.179 150.091 400.946 146.051 398.588 142.695C392.601 134.173 392.182 130.337 396.621 124.645C398.713 121.962 404.609 116.457 405.39 116.457C405.564 116.457 405.602 119.395 405.473 122.985C405.346 126.576 405.131 134.073 404.996 139.645L404.751 149.775L407.425 150.604C408.896 151.06 411.215 152.461 412.58 153.717C413.945 154.973 415.284 156.001 415.555 156.001C415.827 156.001 417.483 153.735 419.234 150.965C433.087 129.053 440 110.274 440 94.5543C440 83.1969 436.871 74.674 429.586 66.1899C426.813 62.9599 424.544 60.2634 424.544 60.1985C424.544 60.1336 426.726 57.5021 429.393 54.3519C438.28 43.8541 439.169 36.5854 432.025 32.8272C428.56 31.0036 427.56 31.0484 426.789 33.0607C426.44 33.9739 424.912 35.6833 423.394 36.8584C418.019 41.0181 417.66 43.9839 421.706 50.7974C423.665 54.096 423.823 54.7108 423.103 56.2031C422.656 57.129 422.231 58.0102 422.159 58.1624C422.087 58.3138 420.61 57.232 418.877 55.7576C414.129 51.7196 406.985 42.6521 405.254 38.4678C402.138 30.9305 402.998 22.2077 407.536 15.3195C408.739 13.4937 409.595 12 409.439 12C409.282 12 407.473 13.6236 405.418 15.6082ZM202.492 20.5699C190.809 26.8701 178.94 30.6403 170.758 30.6477C163.98 30.6545 160.247 29.2846 156.427 25.3891L153.571 22.4763L151.216 27.1238C145.113 39.1722 136.36 51.7376 122.947 67.7052C114.768 77.4428 114.7 77.551 115.143 80.2863C115.581 82.9887 115.637 83.0343 117.92 82.5455C131.566 79.6215 135.847 79.3738 144.056 81.0324C158.502 83.9512 169.399 91.0013 173.357 99.9891C174.128 101.739 174.666 103.256 174.553 103.359C174.439 103.462 170.928 105.696 166.749 108.323C157.534 114.116 153.279 118.227 151.775 122.791C150.843 125.617 150.8 126.48 151.493 128.42C153.751 134.735 164.77 135.374 170.607 129.528L173.039 127.093L170.151 126.57C164.119 125.478 163.612 124.527 167.261 121.152C169.624 118.964 176.012 114.779 176.364 115.187C176.476 115.318 176.273 117.555 175.911 120.158C172.448 145.07 149.266 172.844 116.386 191.471C99.9508 200.783 89.7697 204.915 76.8766 207.506C63.2424 210.247 51.0867 208.916 44.0625 203.915C40.686 201.511 37.1974 196.068 36.1444 191.563C33.5761 180.567 39.7206 166.119 51.8492 154.638C63.8567 143.27 77.8504 134.152 89.3376 130.213C97.1004 127.551 109.783 126.857 116.064 128.75C130.867 133.212 136.243 145.444 127.704 155.234C123.965 159.522 118.055 162.796 110.268 164.894C99.5567 167.78 99.4569 167.77 104.633 164.363C109.281 161.304 111.178 158.821 110.667 156.465C109.362 150.44 96.6986 148.507 87.9401 152.996C84.3233 154.85 79.7174 159.887 78.0996 163.758C74.6033 172.126 78.5646 177.986 90.0105 181.378C110.76 187.526 137.667 172.435 147.227 149.286C149.056 144.858 149.23 143.787 149.23 136.975C149.23 130.188 149.071 129.2 147.468 126.041C145.379 121.923 141.041 118.084 135.706 115.629C132.147 113.991 130.979 113.856 120.894 113.906C110.751 113.956 109.401 114.13 102.54 116.274C88.3909 120.695 75.2203 127.813 61.1693 138.631C39.3413 155.437 27.6339 175.766 30.4005 192.057C32.7698 206.008 42.0725 215.326 58.5533 220.254C65.6915 222.389 79.7038 222.598 88.6936 220.704C107.087 216.828 130.969 203.548 150.028 186.596C162.067 175.889 175.6 158.656 182.549 145.182C187.592 135.404 191.099 123.391 191.815 113.436L192.242 107.497L195.531 106.336C200.401 104.616 205.364 104.128 206.535 105.253C207.938 106.602 207.794 107.139 205.099 110.594C202.868 113.455 202.807 113.648 204.294 113.136C205.179 112.831 207.019 111.747 208.384 110.727L210.864 108.874L210.475 111.733C210.261 113.305 209.203 123.321 208.124 133.99C205.98 155.175 206.078 157.719 209.175 161.591C210.797 163.619 213.792 164.064 216.827 162.726C219.738 161.445 229.409 149.753 229.409 147.516C229.409 147.268 227.794 148.264 225.819 149.727C221.266 153.102 220.393 152.758 220.393 147.592C220.393 144.503 226.623 76.9452 228.493 59.7516L228.858 56.3941L227.294 60.1553C226.433 62.2235 224.766 64.8558 223.588 66.0033C221.436 68.1014 219.91 68.2775 216.15 66.8621C214.855 66.3742 214.763 66.7823 213.705 77.789C212.077 94.7095 212.853 92.9509 207.013 92.9733C203.975 92.9845 199.71 93.6739 196.054 94.7431C192.761 95.7063 190.008 96.3696 189.935 96.2167C189.863 96.0637 188.95 93.9239 187.908 91.4617C186.659 88.5115 184.227 84.9189 180.776 80.9265C176.506 75.9879 174.417 74.2323 169.468 71.4239C162.235 67.3195 154.708 64.7334 145.266 63.1091C141.448 62.4526 138.271 61.8482 138.206 61.7661C138.14 61.6841 139.869 59.3838 142.048 56.6545L146.01 51.692L149.874 52.3016C156.471 53.3417 171.556 53.1306 177.009 51.9218C188.759 49.3171 197.749 41.1494 203.624 27.7409C205.492 23.479 206.936 18.7128 206.358 18.7225C206.108 18.7263 204.368 19.5574 202.492 20.5699ZM336.768 78.7672C319.169 82.9828 302.826 97.6574 302.826 109.242C302.826 114.338 304.21 118.1 307.486 121.912C312.106 127.287 316.529 129.326 324.425 129.721C328.022 129.901 332.005 129.688 333.405 129.24C334.788 128.797 336.082 128.623 336.279 128.853C336.9 129.577 336.454 141.437 335.676 144.875C333.965 152.433 329.864 156.746 324.401 156.734C317.828 156.719 318.134 157.312 318.385 145.111C318.604 134.434 318.604 134.43 317.094 133.992C314.771 133.317 309.171 135.534 305.911 138.418C302.894 141.087 299.183 146.516 297.774 150.321C297.068 152.23 297.391 152.038 300.597 148.643C302.589 146.534 304.629 144.809 305.132 144.809C306.238 144.809 306.256 146.059 305.37 160.385C305.005 166.285 304.85 171.278 305.026 171.482C305.202 171.687 306.666 170.507 308.28 168.862C310.705 166.389 311.854 165.778 314.909 165.338C327.606 163.509 337.728 158.328 345.116 149.877L349.731 144.597L349.946 132.309L350.161 120.022L352.343 117.912L354.526 115.802L348.479 118.067C340.226 121.158 333.973 121.615 329.108 119.482C316.632 114.012 319.01 97.9626 333.578 89.3091C336.161 87.7743 341.94 86.4485 343.517 87.0282C346.885 88.2668 342.194 94.6222 333.186 101.023L327.803 104.849L330.932 105.87C332.653 106.432 336.524 106.897 339.535 106.904C345.825 106.918 349.009 105.76 355.869 100.961C361.403 97.0904 365.473 96.1853 367.385 98.4013C368.585 99.7906 368.628 100.162 367.852 102.333C367.381 103.651 365.097 106.865 362.778 109.474L358.56 114.218H361.694H364.828L364.363 128.395C363.906 142.283 363.923 142.571 365.193 142.571C367.821 142.571 375.305 137.25 379.67 132.279C385.915 125.165 386.285 124.043 381.451 126.869C379.316 128.118 377.38 129.141 377.15 129.141C376.919 129.141 376.94 124.301 377.196 118.387L377.659 107.633L375.024 105.889C373.575 104.931 372.387 103.968 372.384 103.751C372.381 103.534 374.237 101.223 376.509 98.6147L380.638 93.8731L379.768 90.526C377.453 81.6151 372.807 81.457 363.773 89.9829C360.178 93.3755 360.102 93.4083 360.591 91.3415C361.917 85.7307 360.314 81.5114 356.08 79.4656C352.509 77.7398 342.558 77.3802 336.768 78.7672ZM260.015 189.763C259.869 190.276 258.862 195.939 257.777 202.348C256.691 208.756 255.397 215.564 254.9 217.477L253.998 220.954L263.052 220.747L272.108 220.54L272.905 217.871L273.702 215.201L268.535 215.547L263.369 215.893L263.829 212.339C264.6 206.385 264.493 206.488 269.409 206.965C273.159 207.329 273.828 207.211 274.086 206.131C274.252 205.439 274.575 204.117 274.804 203.193C275.208 201.565 275.083 201.514 270.669 201.514C265.699 201.514 265.505 201.261 266.692 196.291C267.108 194.545 267.464 194.402 272.262 194.053L277.388 193.68L277.59 191.255L277.792 188.83H269.036C262.603 188.83 260.211 189.078 260.015 189.763ZM345.52 193.866C344.399 201.49 341.666 215.794 340.877 218.164C340.493 219.319 340.179 220.41 340.179 220.589C340.179 220.767 342.006 220.913 344.241 220.913H348.303L351.192 204.872L354.081 188.83H350.171H346.26L345.52 193.866ZM357.324 192.374C356.859 196.389 352.777 217.614 352.086 219.608C351.683 220.77 352.086 220.913 355.752 220.913H359.871L362.349 206.924C363.711 199.23 364.965 192.01 365.134 190.882C365.441 188.832 365.437 188.83 361.587 188.83H357.733L357.324 192.374ZM418.884 192.356C417.143 192.606 416.699 193.049 416.389 194.848C416.096 196.542 415.66 197.037 414.461 197.037C412.912 197.037 412.538 197.589 412.178 200.395C412.04 201.46 412.401 201.956 413.435 202.126C414.231 202.257 414.884 202.488 414.884 202.639C414.884 202.79 414.448 205.092 413.915 207.753C413.382 210.415 412.898 214.008 412.84 215.738C412.688 220.213 413.892 221.022 420.307 220.754C425.353 220.543 425.43 220.51 426.231 218.229L427.043 215.918L423.945 216.263C422.241 216.452 420.709 216.317 420.539 215.963C420.369 215.608 420.694 212.463 421.261 208.975L422.29 202.633L425.467 202.26C428.253 201.934 428.701 201.64 429.103 199.882C429.688 197.331 429.397 197.037 426.284 197.037H423.731L424.097 194.426C424.498 191.565 424.476 191.556 418.884 192.356ZM278.367 197.224C278.374 197.326 279.379 200.432 280.599 204.126L282.818 210.841L278.171 215.844L273.524 220.848L275.808 220.88C277.645 220.907 278.587 220.327 280.616 217.92C282.003 216.274 283.418 215.035 283.761 215.167C284.103 215.3 284.718 216.563 285.127 217.974L285.871 220.54L290.807 220.758C293.521 220.878 295.742 220.86 295.742 220.716C295.742 220.574 294.702 217.468 293.43 213.815L291.119 207.173L295.362 202.399C297.697 199.773 299.606 197.493 299.606 197.331C299.606 197.17 298.676 197.037 297.538 197.037C295.974 197.037 294.795 197.804 292.708 200.176L289.947 203.316L288.883 200.176L287.819 197.037H283.086C280.484 197.037 278.36 197.122 278.367 197.224ZM305.308 197.564C304.371 197.731 303.177 198.436 302.654 199.131C301.435 200.753 299.87 206.466 298.86 212.99C298.086 217.988 298.104 218.162 299.551 219.519C300.779 220.671 302.146 220.913 307.422 220.913C313.682 220.913 313.818 220.876 314.435 218.999C314.78 217.947 315.062 216.856 315.062 216.575C315.062 216.293 313.107 216.064 310.715 216.064H306.368L306.527 213.09C306.615 211.456 307.137 208.323 307.687 206.131L308.687 202.145L313.487 202.389L318.286 202.633L318.284 199.835L318.282 197.037L312.647 197.149C309.548 197.211 306.245 197.398 305.308 197.564ZM324.524 197.576C322.196 197.981 320.544 201.107 319.3 207.455C316.63 221.089 316.517 220.913 328.004 220.913H336.347L336.975 218.999C337.32 217.947 337.603 216.856 337.603 216.575C337.603 216.293 335.112 216.183 332.069 216.329C326.173 216.613 324.967 216.085 325.668 213.527C326.066 212.074 326.561 211.96 332.45 211.96H338.803L339.865 206.428C341.15 199.739 340.679 198.198 337.144 197.521C334.545 197.023 327.521 197.054 324.524 197.576ZM370.479 197.796C367.516 198.604 366.891 199.78 365.332 207.473C363.71 215.475 363.608 219.83 365.026 220.46C365.586 220.71 369.636 220.913 374.025 220.913H382.006L382.989 218.712C383.529 217.501 383.971 216.39 383.971 216.244C383.971 216.097 381.331 216.123 378.103 216.302C371.933 216.644 370.929 216.198 371.561 213.395C371.836 212.18 372.672 211.984 378.392 211.799L384.91 211.587L385.727 207.483C386.942 201.384 386.596 198.334 384.615 197.701C382.404 196.994 373.193 197.056 370.479 197.796ZM390.197 197.535C389.961 197.808 389.767 199.115 389.767 200.44C389.767 201.764 388.899 206.828 387.837 211.694C386.775 216.559 385.906 220.625 385.905 220.727C385.904 220.829 387.743 220.913 389.991 220.913H394.078L395.139 213.513C396.663 202.88 396.929 202.26 399.978 202.26H402.493L401.579 208.043C401.076 211.223 400.241 215.312 399.724 217.129C399.207 218.947 398.783 220.541 398.783 220.673C398.783 220.805 400.625 220.913 402.875 220.913H406.968L408.35 212.408C410.579 198.687 410.393 197.986 404.323 197.26C401.658 196.941 400.361 197.135 399.186 198.027C397.827 199.059 397.566 199.072 397.253 198.128C396.88 197.004 391.077 196.515 390.197 197.535ZM332.856 203.939C332.643 204.863 332.464 206.057 332.46 206.593C332.453 207.279 331.636 207.5 329.714 207.339C327.394 207.145 327.006 206.883 327.168 205.618C327.554 202.612 327.911 202.26 330.573 202.26C333.03 202.26 333.214 202.395 332.856 203.939ZM378.699 204.685C378.509 206.962 378.329 207.124 375.76 207.339C372.884 207.581 372.662 207.256 373.429 203.939C373.748 202.558 374.267 202.26 376.359 202.26C378.839 202.26 378.896 202.319 378.699 204.685Z" fill="#ED3237"/>
</svg>
